<svg xmlns="http://www.w3.org/2000/svg" xmlns:xlink="http://www.w3.org/1999/xlink" width="354" height="569" version="1.1" viewBox="0 0 354 569"><desc>Created with Sketch.</desc><g id="Page-1" fill="none" fill-rule="evenodd" stroke="none" stroke-width="1"><g id="noun_1506482_cc" fill="#fff"><g id="mouse"><path id="Shape" fill-rule="nonzero" d="M354,150 L354,416 C354,617 0,621 0,416 L0,150 C0,-49 354,-49 354,150 Z M339,416 L339,150 C339,-30 15,-30 15,150 L15,416 C15,601 339,596 339,416 Z"/><path id="Shape" d="M177,101 C180,101 183,104 183,107 L183,217 C183,221 180,223 177,223 C173,223 171,221 171,217 L171,107 C171,104 173,101 177,101 Z"/></g></g></g></svg>